<svg width="359" height="282" viewBox="0 0 359 282" fill="none" xmlns="http://www.w3.org/2000/svg">
<path d="M63.6611 50.349L57.7656 46.1565C58.7557 42.5159 58.7501 38.6761 57.7493 35.0383L63.6643 30.8978L58.9421 22.7273L52.3641 25.7368C49.7053 23.0589 46.3762 21.144 42.7246 20.1923L42.0973 13H32.6528L32.0256 20.1923C28.3747 21.1453 25.0467 23.0613 22.3893 25.74L15.8081 22.7305L11.0891 30.901L17.0041 35.0415C16.0028 38.678 15.9961 42.5166 16.9846 46.1565L11.0891 50.349L15.8081 58.4805L22.3893 55.4678C25.0471 58.1453 28.375 60.0602 32.0256 61.0123L32.6528 68.2045H42.0973L42.7246 61.0123C46.3751 60.06 49.703 58.1452 52.3608 55.4678L58.9421 58.4805L63.6643 50.3523L63.6611 50.349ZM43.8913 9.70129C44.3097 9.70085 44.712 9.86176 45.0147 10.1505C45.3174 10.4393 45.4971 10.8337 45.5163 11.2515L46.0948 17.8653C48.4973 18.7808 50.7386 20.0732 52.7346 21.6938L58.7471 18.889C59.1184 18.698 59.5491 18.6572 59.9497 18.7752C60.3503 18.8932 60.6901 19.1609 60.8986 19.5228L67.4148 30.8003C67.6242 31.1618 67.6863 31.59 67.5883 31.9961C67.4902 32.4022 67.2396 32.7549 66.8883 32.981L61.4478 36.79C61.8638 39.3835 61.8508 41.9673 61.4511 44.4568L66.8883 48.2593C67.2404 48.4855 67.4917 48.8388 67.5898 49.2457C67.6878 49.6525 67.6252 50.0815 67.4148 50.4433L60.8986 61.6785C60.6901 62.0404 60.3503 62.3081 59.9497 62.4261C59.5491 62.5441 59.1184 62.5034 58.7471 62.3123L52.7346 59.5075C50.7781 61.1 48.5486 62.4 46.0948 63.3393L45.5163 69.953C45.4963 70.3704 45.3162 70.7639 45.0136 71.052C44.711 71.3401 44.3091 71.5005 43.8913 71.5H30.8588C30.441 71.5005 30.0391 71.3401 29.7365 71.052C29.4339 70.7639 29.2539 70.3704 29.2338 69.953L28.6553 63.3393C26.2527 62.4226 24.0114 61.1291 22.0156 59.5075L16.0031 62.3123C15.6318 62.5046 15.2006 62.5464 14.7993 62.429C14.398 62.3116 14.0574 62.0439 13.8483 61.6818L7.33532 50.44C7.12595 50.0786 7.06383 49.6503 7.16187 49.2442C7.25991 48.8382 7.51058 48.4854 7.86182 48.2593L13.2991 44.4535C12.8919 41.9142 12.8919 39.3262 13.2991 36.7868L7.86507 32.981C7.51469 32.755 7.26462 32.4028 7.16662 31.9975C7.06862 31.5922 7.13018 31.1647 7.33857 30.8035L13.8451 19.5228C14.0536 19.1601 14.394 18.8918 14.7953 18.7737C15.1967 18.6557 15.6281 18.697 15.9998 18.889L22.0123 21.6938C24.0083 20.0732 26.2496 18.7808 28.6521 17.8653L29.2306 11.2515C29.2498 10.8337 29.4295 10.4393 29.7322 10.1505C30.0349 9.86176 30.4372 9.70085 30.8556 9.70129H43.8881H43.8913ZM37.3751 29.25C40.3919 29.25 43.2852 30.4485 45.4184 32.5817C47.5516 34.7149 48.7501 37.6082 48.7501 40.625C48.7501 43.6419 47.5516 46.5352 45.4184 48.6684C43.2852 50.8016 40.3919 52 37.3751 52C34.3582 52 31.465 50.8016 29.3317 48.6684C27.1985 46.5352 26.0001 43.6419 26.0001 40.625C26.0001 37.6082 27.1985 34.7149 29.3317 32.5817C31.465 30.4485 34.3582 29.25 37.3751 29.25ZM37.3751 32.5C35.2202 32.5 33.1536 33.3561 31.6298 34.8798C30.1061 36.4035 29.2501 38.4702 29.2501 40.625C29.2501 42.7799 30.1061 44.8466 31.6298 46.3703C33.1536 47.894 35.2202 48.75 37.3751 48.75C39.53 48.75 41.5966 47.894 43.1203 46.3703C44.644 44.8466 45.5001 42.7799 45.5001 40.625C45.5001 38.4702 44.644 36.4035 43.1203 34.8798C41.5966 33.3561 39.53 32.5 37.3751 32.5Z" fill="black"/>
<path d="M9.975 125C9.975 123.917 10.1583 122.858 10.525 121.825C10.9083 120.775 11.4583 119.825 12.175 118.975C12.9083 118.108 13.8 117.425 14.85 116.925C15.9 116.408 17.0917 116.15 18.425 116.15C20.0083 116.15 21.3667 116.517 22.5 117.25C23.6333 117.967 24.475 118.892 25.025 120.025L23.25 121.175C22.9 120.425 22.45 119.833 21.9 119.4C21.3667 118.95 20.7833 118.633 20.15 118.45C19.5333 118.267 18.925 118.175 18.325 118.175C17.3417 118.175 16.4667 118.375 15.7 118.775C14.95 119.175 14.3167 119.708 13.8 120.375C13.2833 121.042 12.8917 121.792 12.625 122.625C12.375 123.442 12.25 124.267 12.25 125.1C12.25 126.017 12.4 126.9 12.7 127.75C13.0167 128.6 13.45 129.35 14 130C14.55 130.65 15.2 131.167 15.95 131.55C16.7 131.933 17.5167 132.125 18.4 132.125C19.0167 132.125 19.65 132.017 20.3 131.8C20.95 131.583 21.5583 131.25 22.125 130.8C22.6917 130.333 23.1417 129.733 23.475 129L25.35 130.025C24.9833 130.908 24.4167 131.658 23.65 132.275C22.8833 132.892 22.025 133.358 21.075 133.675C20.1417 133.992 19.2167 134.15 18.3 134.15C17.0833 134.15 15.9667 133.892 14.95 133.375C13.9333 132.842 13.05 132.142 12.3 131.275C11.5667 130.392 10.9917 129.408 10.575 128.325C10.175 127.225 9.975 126.117 9.975 125ZM28.291 134V120.95H30.491V126.325H31.941L36.041 120.95H38.541L33.666 127.275L39.116 134H36.566L31.941 128.35H30.491V134H28.291ZM46.7963 134.25C45.4963 134.25 44.3463 133.942 43.3463 133.325C42.363 132.692 41.5963 131.867 41.0463 130.85C40.4963 129.817 40.2213 128.7 40.2213 127.5C40.2213 126.283 40.4963 125.167 41.0463 124.15C41.613 123.117 42.388 122.292 43.3713 121.675C44.3713 121.042 45.513 120.725 46.7963 120.725C48.0963 120.725 49.238 121.042 50.2213 121.675C51.2213 122.292 51.9963 123.117 52.5463 124.15C53.113 125.167 53.3963 126.283 53.3963 127.5C53.3963 128.7 53.113 129.817 52.5463 130.85C51.9963 131.867 51.2296 132.692 50.2463 133.325C49.263 133.942 48.113 134.25 46.7963 134.25ZM42.4713 127.525C42.4713 128.425 42.663 129.242 43.0463 129.975C43.4463 130.708 43.9713 131.292 44.6213 131.725C45.2713 132.142 45.9963 132.35 46.7963 132.35C47.5963 132.35 48.3213 132.133 48.9713 131.7C49.638 131.267 50.163 130.683 50.5463 129.95C50.9463 129.2 51.1463 128.375 51.1463 127.475C51.1463 126.575 50.9463 125.758 50.5463 125.025C50.163 124.292 49.638 123.708 48.9713 123.275C48.3213 122.842 47.5963 122.625 46.7963 122.625C45.9963 122.625 45.2713 122.85 44.6213 123.3C43.9713 123.733 43.4463 124.317 43.0463 125.05C42.663 125.783 42.4713 126.608 42.4713 127.525ZM63.5871 134.25C62.5204 134.25 61.5704 133.983 60.7371 133.45C59.9038 132.917 59.2454 132.242 58.7621 131.425V139.325H56.5621V120.95H58.5121V123.4C59.0288 122.6 59.7038 121.958 60.5371 121.475C61.3704 120.975 62.2788 120.725 63.2621 120.725C64.1621 120.725 64.9871 120.908 65.7371 121.275C66.4871 121.642 67.1371 122.142 67.6871 122.775C68.2371 123.408 68.6621 124.133 68.9621 124.95C69.2788 125.75 69.4371 126.592 69.4371 127.475C69.4371 128.708 69.1871 129.842 68.6871 130.875C68.2038 131.908 67.5204 132.733 66.6371 133.35C65.7538 133.95 64.7371 134.25 63.5871 134.25ZM62.9121 132.35C63.7788 132.35 64.5288 132.117 65.1621 131.65C65.7954 131.183 66.2871 130.575 66.6371 129.825C67.0038 129.075 67.1871 128.292 67.1871 127.475C67.1871 126.592 66.9871 125.783 66.5871 125.05C66.2038 124.317 65.6704 123.733 64.9871 123.3C64.3204 122.85 63.5621 122.625 62.7121 122.625C62.1954 122.625 61.6454 122.758 61.0621 123.025C60.4954 123.292 59.9954 123.65 59.5621 124.1C59.1454 124.533 58.8788 125.017 58.7621 125.55V129.275C59.1288 130.142 59.6871 130.875 60.4371 131.475C61.2038 132.058 62.0288 132.35 62.9121 132.35ZM78.3383 134.25C77.0383 134.25 75.8883 133.942 74.8883 133.325C73.9049 132.692 73.1383 131.867 72.5883 130.85C72.0383 129.817 71.7633 128.7 71.7633 127.5C71.7633 126.283 72.0383 125.167 72.5883 124.15C73.1549 123.117 73.9299 122.292 74.9133 121.675C75.9133 121.042 77.0549 120.725 78.3383 120.725C79.6383 120.725 80.7799 121.042 81.7633 121.675C82.7633 122.292 83.5383 123.117 84.0883 124.15C84.6549 125.167 84.9383 126.283 84.9383 127.5C84.9383 128.7 84.6549 129.817 84.0883 130.85C83.5383 131.867 82.7716 132.692 81.7883 133.325C80.8049 133.942 79.6549 134.25 78.3383 134.25ZM74.0133 127.525C74.0133 128.425 74.2049 129.242 74.5883 129.975C74.9883 130.708 75.5133 131.292 76.1633 131.725C76.8133 132.142 77.5383 132.35 78.3383 132.35C79.1383 132.35 79.8633 132.133 80.5133 131.7C81.1799 131.267 81.7049 130.683 82.0883 129.95C82.4883 129.2 82.6883 128.375 82.6883 127.475C82.6883 126.575 82.4883 125.758 82.0883 125.025C81.7049 124.292 81.1799 123.708 80.5133 123.275C79.8633 122.842 79.1383 122.625 78.3383 122.625C77.5383 122.625 76.8133 122.85 76.1633 123.3C75.5133 123.733 74.9883 124.317 74.5883 125.05C74.2049 125.783 74.0133 126.608 74.0133 127.525ZM93.8791 134.25C92.5791 134.25 91.4291 133.942 90.4291 133.325C89.4291 132.692 88.6458 131.858 88.0791 130.825C87.5124 129.792 87.2291 128.667 87.2291 127.45C87.2291 126.217 87.5041 125.092 88.0541 124.075C88.6041 123.058 89.3791 122.25 90.3791 121.65C91.3791 121.033 92.5374 120.725 93.8541 120.725C95.1374 120.725 96.2541 121.017 97.2041 121.6C98.1708 122.167 98.8874 122.933 99.3541 123.9L97.2041 124.575C96.8708 123.958 96.4041 123.483 95.8041 123.15C95.2041 122.8 94.5374 122.625 93.8041 122.625C93.0041 122.625 92.2708 122.833 91.6041 123.25C90.9541 123.667 90.4374 124.242 90.0541 124.975C89.6708 125.692 89.4791 126.517 89.4791 127.45C89.4791 128.367 89.6708 129.2 90.0541 129.95C90.4541 130.683 90.9791 131.267 91.6291 131.7C92.2958 132.133 93.0291 132.35 93.8291 132.35C94.3458 132.35 94.8374 132.258 95.3041 132.075C95.7874 131.892 96.2041 131.65 96.5541 131.35C96.9208 131.033 97.1708 130.692 97.3041 130.325L99.4541 130.975C99.0708 131.925 98.3708 132.708 97.3541 133.325C96.3541 133.942 95.1958 134.25 93.8791 134.25ZM105.622 134V122.9H101.122V120.95H112.322V122.9H107.822V134H105.622ZM115.007 134V120.95H117.207V125.4H120.457C121.99 125.4 123.149 125.792 123.932 126.575C124.732 127.342 125.132 128.35 125.132 129.6C125.132 130.85 124.749 131.9 123.982 132.75C123.215 133.583 122.09 134 120.607 134H115.007ZM117.207 132.275H120.307C121.224 132.275 121.882 132.017 122.282 131.5C122.699 130.967 122.907 130.35 122.907 129.65C122.907 128.967 122.715 128.375 122.332 127.875C121.949 127.375 121.257 127.125 120.257 127.125H117.207V132.275Z" fill="black"/>
<path d="M10.445 185V172.93H18.724V174.273H11.975V178.081H15.749C17.075 178.081 18.061 178.393 18.707 179.016C19.3643 179.639 19.693 180.455 19.693 181.464C19.693 182.133 19.5513 182.733 19.268 183.266C18.9847 183.799 18.5597 184.224 17.993 184.541C17.4263 184.847 16.7123 185 15.851 185H10.445ZM11.975 183.657H15.664C16.2533 183.657 16.7293 183.549 17.092 183.334C17.4547 183.119 17.7153 182.841 17.874 182.501C18.044 182.15 18.129 181.787 18.129 181.413C18.129 181.05 18.0553 180.71 17.908 180.393C17.7607 180.064 17.5057 179.804 17.143 179.611C16.7803 179.407 16.2703 179.305 15.613 179.305H11.975V183.657ZM20.9379 185.068V183.725C21.3232 183.714 21.6632 183.572 21.9579 183.3C22.2525 183.028 22.4849 182.529 22.6549 181.804C22.8362 181.079 22.9495 180.042 22.9949 178.693L23.0969 176.126H29.1319V185H27.6359V177.452H24.4229L24.3889 178.829C24.3322 180.438 24.1679 181.696 23.8959 182.603C23.6352 183.51 23.2555 184.144 22.7569 184.507C22.2695 184.87 21.6632 185.057 20.9379 185.068ZM31.191 182.433C31.191 181.866 31.3496 181.379 31.667 180.971C31.9956 180.552 32.4433 180.229 33.01 180.002C33.5766 179.775 34.234 179.662 34.982 179.662C35.3786 179.662 35.798 179.696 36.24 179.764C36.682 179.821 37.073 179.911 37.413 180.036V179.39C37.413 178.71 37.209 178.177 36.801 177.792C36.393 177.395 35.815 177.197 35.067 177.197C34.5796 177.197 34.1093 177.288 33.656 177.469C33.214 177.639 32.7436 177.888 32.245 178.217L31.701 177.163C32.279 176.766 32.857 176.472 33.435 176.279C34.013 176.075 34.6136 175.973 35.237 175.973C36.3703 175.973 37.2656 176.29 37.923 176.925C38.5803 177.548 38.909 178.421 38.909 179.543V183.3C38.909 183.651 39.0676 183.833 39.385 183.844V185C39.2376 185.023 39.1073 185.04 38.994 185.051C38.892 185.062 38.807 185.068 38.739 185.068C38.3876 185.068 38.1213 184.972 37.94 184.779C37.77 184.586 37.6736 184.382 37.651 184.167L37.617 183.606C37.2316 184.105 36.7273 184.49 36.104 184.762C35.4806 185.034 34.863 185.17 34.251 185.17C33.6616 185.17 33.1346 185.051 32.67 184.813C32.2053 184.564 31.8426 184.235 31.582 183.827C31.3213 183.408 31.191 182.943 31.191 182.433ZM36.971 183.062C37.107 182.903 37.2146 182.745 37.294 182.586C37.3733 182.416 37.413 182.274 37.413 182.161V181.056C36.6876 180.773 35.9396 180.631 35.169 180.631C34.4096 180.631 33.792 180.784 33.316 181.09C32.8513 181.385 32.619 181.793 32.619 182.314C32.619 182.597 32.6926 182.875 32.84 183.147C32.9986 183.408 33.2253 183.623 33.52 183.793C33.826 183.963 34.2 184.048 34.642 184.048C35.1066 184.048 35.5486 183.957 35.968 183.776C36.3873 183.583 36.7216 183.345 36.971 183.062ZM41.6241 185V176.126H47.0981V177.452H43.1201V185H41.6241ZM52.8463 185.17C51.9623 185.17 51.1803 184.96 50.5003 184.541C49.8317 184.11 49.3103 183.549 48.9363 182.858C48.5623 182.155 48.3753 181.396 48.3753 180.58C48.3753 179.753 48.5623 178.993 48.9363 178.302C49.3217 177.599 49.8487 177.038 50.5173 176.619C51.1973 176.188 51.9737 175.973 52.8463 175.973C53.7303 175.973 54.5067 176.188 55.1753 176.619C55.8553 177.038 56.3823 177.599 56.7563 178.302C57.1417 178.993 57.3343 179.753 57.3343 180.58C57.3343 181.396 57.1417 182.155 56.7563 182.858C56.3823 183.549 55.861 184.11 55.1923 184.541C54.5237 184.96 53.7417 185.17 52.8463 185.17ZM49.9053 180.597C49.9053 181.209 50.0357 181.764 50.2963 182.263C50.5683 182.762 50.9253 183.158 51.3673 183.453C51.8093 183.736 52.3023 183.878 52.8463 183.878C53.3903 183.878 53.8833 183.731 54.3253 183.436C54.7787 183.141 55.1357 182.745 55.3963 182.246C55.6683 181.736 55.8043 181.175 55.8043 180.563C55.8043 179.951 55.6683 179.396 55.3963 178.897C55.1357 178.398 54.7787 178.002 54.3253 177.707C53.8833 177.412 53.3903 177.265 52.8463 177.265C52.3023 177.265 51.8093 177.418 51.3673 177.724C50.9253 178.019 50.5683 178.415 50.2963 178.914C50.0357 179.413 49.9053 179.974 49.9053 180.597ZM58.5011 187.091V183.674H58.6881C59.0167 183.674 59.3114 183.538 59.5721 183.266C59.8441 182.983 60.0651 182.484 60.2351 181.77C60.4051 181.045 60.5071 180.019 60.5411 178.693L60.6261 176.126H66.6611V183.674H67.8681V187.091H66.5421V185H59.8271V187.091H58.5011ZM60.7791 183.674H65.1651V177.452H61.9521L61.9011 178.829C61.8557 180.28 61.7367 181.379 61.5441 182.127C61.3627 182.875 61.1077 183.391 60.7791 183.674ZM69.174 182.433C69.174 181.866 69.3327 181.379 69.65 180.971C69.9787 180.552 70.4264 180.229 70.993 180.002C71.5597 179.775 72.217 179.662 72.965 179.662C73.3617 179.662 73.781 179.696 74.223 179.764C74.665 179.821 75.056 179.911 75.396 180.036V179.39C75.396 178.71 75.192 178.177 74.784 177.792C74.376 177.395 73.798 177.197 73.05 177.197C72.5627 177.197 72.0924 177.288 71.639 177.469C71.197 177.639 70.7267 177.888 70.228 178.217L69.684 177.163C70.262 176.766 70.84 176.472 71.418 176.279C71.996 176.075 72.5967 175.973 73.22 175.973C74.3534 175.973 75.2487 176.29 75.906 176.925C76.5634 177.548 76.892 178.421 76.892 179.543V183.3C76.892 183.651 77.0507 183.833 77.368 183.844V185C77.2207 185.023 77.0904 185.04 76.977 185.051C76.875 185.062 76.79 185.068 76.722 185.068C76.3707 185.068 76.1044 184.972 75.923 184.779C75.753 184.586 75.6567 184.382 75.634 184.167L75.6 183.606C75.2147 184.105 74.7104 184.49 74.087 184.762C73.4637 185.034 72.846 185.17 72.234 185.17C71.6447 185.17 71.1177 185.051 70.653 184.813C70.1884 184.564 69.8257 184.235 69.565 183.827C69.3044 183.408 69.174 182.943 69.174 182.433ZM74.954 183.062C75.09 182.903 75.1977 182.745 75.277 182.586C75.3564 182.416 75.396 182.274 75.396 182.161V181.056C74.6707 180.773 73.9227 180.631 73.152 180.631C72.3927 180.631 71.775 180.784 71.299 181.09C70.8344 181.385 70.602 181.793 70.602 182.314C70.602 182.597 70.6757 182.875 70.823 183.147C70.9817 183.408 71.2084 183.623 71.503 183.793C71.809 183.963 72.183 184.048 72.625 184.048C73.0897 184.048 73.5317 183.957 73.951 183.776C74.3704 183.583 74.7047 183.345 74.954 183.062ZM84.4011 185.17C83.6758 185.17 83.0298 184.989 82.4631 184.626C81.8964 184.263 81.4488 183.804 81.1201 183.249V188.621H79.6241V176.126H80.9501V177.792C81.3014 177.248 81.7604 176.812 82.3271 176.483C82.8938 176.143 83.5114 175.973 84.1801 175.973C84.7921 175.973 85.3531 176.098 85.8631 176.347C86.3731 176.596 86.8151 176.936 87.1891 177.367C87.5631 177.798 87.8521 178.291 88.0561 178.846C88.2714 179.39 88.3791 179.962 88.3791 180.563C88.3791 181.402 88.2091 182.172 87.8691 182.875C87.5404 183.578 87.0758 184.139 86.4751 184.558C85.8744 184.966 85.1831 185.17 84.4011 185.17ZM83.9421 183.878C84.5314 183.878 85.0414 183.719 85.4721 183.402C85.9028 183.085 86.2371 182.671 86.4751 182.161C86.7244 181.651 86.8491 181.118 86.8491 180.563C86.8491 179.962 86.7131 179.413 86.4411 178.914C86.1804 178.415 85.8178 178.019 85.3531 177.724C84.8998 177.418 84.3841 177.265 83.8061 177.265C83.4548 177.265 83.0808 177.356 82.6841 177.537C82.2988 177.718 81.9588 177.962 81.6641 178.268C81.3808 178.563 81.1994 178.891 81.1201 179.254V181.787C81.3694 182.376 81.7491 182.875 82.2591 183.283C82.7804 183.68 83.3414 183.878 83.9421 183.878ZM89.8929 185L92.4089 181.43C91.8309 181.317 91.3662 181.045 91.0149 180.614C90.6636 180.172 90.4879 179.583 90.4879 178.846C90.4879 178.313 90.6126 177.843 90.8619 177.435C91.1112 177.027 91.4569 176.704 91.8989 176.466C92.3522 176.228 92.8792 176.109 93.4799 176.109H97.1179V185H95.6219V181.668H93.8879L91.5419 185H89.8929ZM93.5819 180.563H95.6219V177.282H93.7519C93.2192 177.282 92.7942 177.435 92.4769 177.741C92.1596 178.036 92.0009 178.415 92.0009 178.88C92.0009 179.345 92.1312 179.741 92.3919 180.07C92.6639 180.399 93.0606 180.563 93.5819 180.563ZM108.393 185.17C107.509 185.17 106.727 184.96 106.047 184.541C105.378 184.11 104.857 183.549 104.483 182.858C104.109 182.155 103.922 181.396 103.922 180.58C103.922 179.753 104.109 178.993 104.483 178.302C104.868 177.599 105.395 177.038 106.064 176.619C106.744 176.188 107.52 175.973 108.393 175.973C109.277 175.973 110.053 176.188 110.722 176.619C111.402 177.038 111.929 177.599 112.303 178.302C112.688 178.993 112.881 179.753 112.881 180.58C112.881 181.396 112.688 182.155 112.303 182.858C111.929 183.549 111.408 184.11 110.739 184.541C110.07 184.96 109.288 185.17 108.393 185.17ZM105.452 180.597C105.452 181.209 105.582 181.764 105.843 182.263C106.115 182.762 106.472 183.158 106.914 183.453C107.356 183.736 107.849 183.878 108.393 183.878C108.937 183.878 109.43 183.731 109.872 183.436C110.325 183.141 110.682 182.745 110.943 182.246C111.215 181.736 111.351 181.175 111.351 180.563C111.351 179.951 111.215 179.396 110.943 178.897C110.682 178.398 110.325 178.002 109.872 177.707C109.43 177.412 108.937 177.265 108.393 177.265C107.849 177.265 107.356 177.418 106.914 177.724C106.472 178.019 106.115 178.415 105.843 178.914C105.582 179.413 105.452 179.974 105.452 180.597ZM117.193 185V177.452H114.133V176.126H121.749V177.452H118.689V185H117.193ZM122.81 185.068V183.725C123.195 183.714 123.535 183.572 123.83 183.3C124.124 183.028 124.357 182.529 124.527 181.804C124.708 181.079 124.821 180.042 124.867 178.693L124.969 176.126H131.004V185H129.508V177.452H126.295L126.261 178.829C126.204 180.438 126.04 181.696 125.768 182.603C125.507 183.51 125.127 184.144 124.629 184.507C124.141 184.87 123.535 185.057 122.81 185.068ZM133.063 182.433C133.063 181.866 133.221 181.379 133.539 180.971C133.867 180.552 134.315 180.229 134.882 180.002C135.448 179.775 136.106 179.662 136.854 179.662C137.25 179.662 137.67 179.696 138.112 179.764C138.554 179.821 138.945 179.911 139.285 180.036V179.39C139.285 178.71 139.081 178.177 138.673 177.792C138.265 177.395 137.687 177.197 136.939 177.197C136.451 177.197 135.981 177.288 135.528 177.469C135.086 177.639 134.615 177.888 134.117 178.217L133.573 177.163C134.151 176.766 134.729 176.472 135.307 176.279C135.885 176.075 136.485 175.973 137.109 175.973C138.242 175.973 139.137 176.29 139.795 176.925C140.452 177.548 140.781 178.421 140.781 179.543V183.3C140.781 183.651 140.939 183.833 141.257 183.844V185C141.109 185.023 140.979 185.04 140.866 185.051C140.764 185.062 140.679 185.068 140.611 185.068C140.259 185.068 139.993 184.972 139.812 184.779C139.642 184.586 139.545 184.382 139.523 184.167L139.489 183.606C139.103 184.105 138.599 184.49 137.976 184.762C137.352 185.034 136.735 185.17 136.123 185.17C135.533 185.17 135.006 185.051 134.542 184.813C134.077 184.564 133.714 184.235 133.454 183.827C133.193 183.408 133.063 182.943 133.063 182.433ZM138.843 183.062C138.979 182.903 139.086 182.745 139.166 182.586C139.245 182.416 139.285 182.274 139.285 182.161V181.056C138.559 180.773 137.811 180.631 137.041 180.631C136.281 180.631 135.664 180.784 135.188 181.09C134.723 181.385 134.491 181.793 134.491 182.314C134.491 182.597 134.564 182.875 134.712 183.147C134.87 183.408 135.097 183.623 135.392 183.793C135.698 183.963 136.072 184.048 136.514 184.048C136.978 184.048 137.42 183.957 137.84 183.776C138.259 183.583 138.593 183.345 138.843 183.062ZM142.901 185L146.165 180.427L143.19 176.126H144.873L147.423 179.815H148.375V176.126H149.905V179.815H150.891L153.39 176.126H155.09L152.115 180.427L155.396 185H153.679L150.891 181.124H149.905V185H148.375V181.124H147.423L144.618 185H142.901ZM161.46 185.17C160.576 185.17 159.794 184.96 159.114 184.541C158.434 184.122 157.901 183.561 157.516 182.858C157.13 182.155 156.938 181.39 156.938 180.563C156.938 179.724 157.13 178.959 157.516 178.268C157.901 177.577 158.434 177.021 159.114 176.602C159.805 176.183 160.593 175.973 161.477 175.973C162.372 175.973 163.148 176.188 163.806 176.619C164.474 177.038 164.99 177.594 165.353 178.285C165.727 178.965 165.914 179.702 165.914 180.495C165.914 180.744 165.902 180.937 165.88 181.073H158.519C158.564 181.651 158.723 182.167 158.995 182.62C159.278 183.062 159.641 183.413 160.083 183.674C160.525 183.923 161.001 184.048 161.511 184.048C162.055 184.048 162.565 183.912 163.041 183.64C163.528 183.368 163.862 183.011 164.044 182.569L165.336 182.926C165.052 183.583 164.559 184.122 163.857 184.541C163.154 184.96 162.355 185.17 161.46 185.17ZM158.468 180.036H164.52C164.474 179.458 164.31 178.948 164.027 178.506C163.743 178.064 163.381 177.718 162.939 177.469C162.497 177.22 162.009 177.095 161.477 177.095C160.955 177.095 160.474 177.22 160.032 177.469C159.59 177.718 159.227 178.064 158.944 178.506C158.672 178.948 158.513 179.458 158.468 180.036ZM167.9 185V176.126H169.396V179.798H174.02V176.126H175.516V185H174.02V181.124H169.396V185H167.9ZM178.25 185V176.126H179.746V179.798H184.37V176.126H185.866V185H184.37V181.124H179.746V185H178.25ZM192.494 185.17C191.61 185.17 190.828 184.96 190.148 184.541C189.479 184.11 188.958 183.549 188.584 182.858C188.21 182.155 188.023 181.396 188.023 180.58C188.023 179.753 188.21 178.993 188.584 178.302C188.969 177.599 189.496 177.038 190.165 176.619C190.845 176.188 191.621 175.973 192.494 175.973C193.378 175.973 194.154 176.188 194.823 176.619C195.503 177.038 196.03 177.599 196.404 178.302C196.789 178.993 196.982 179.753 196.982 180.58C196.982 181.396 196.789 182.155 196.404 182.858C196.03 183.549 195.509 184.11 194.84 184.541C194.171 184.96 193.389 185.17 192.494 185.17ZM189.553 180.597C189.553 181.209 189.683 181.764 189.944 182.263C190.216 182.762 190.573 183.158 191.015 183.453C191.457 183.736 191.95 183.878 192.494 183.878C193.038 183.878 193.531 183.731 193.973 183.436C194.426 183.141 194.783 182.745 195.044 182.246C195.316 181.736 195.452 181.175 195.452 180.563C195.452 179.951 195.316 179.396 195.044 178.897C194.783 178.398 194.426 178.002 193.973 177.707C193.531 177.412 193.038 177.265 192.494 177.265C191.95 177.265 191.457 177.418 191.015 177.724C190.573 178.019 190.216 178.415 189.944 178.914C189.683 179.413 189.553 179.974 189.553 180.597ZM199.118 185V176.143H200.614V182.994L205.578 176.126H206.938V185H205.442V178.285L200.546 185H199.118ZM203.045 175.123C202.229 175.123 201.611 174.93 201.192 174.545C200.772 174.148 200.563 173.661 200.563 173.083H201.617C201.617 173.4 201.724 173.667 201.94 173.882C202.166 174.086 202.535 174.188 203.045 174.188C203.543 174.188 203.895 174.092 204.099 173.899C204.303 173.695 204.427 173.423 204.473 173.083H205.527C205.527 173.661 205.317 174.148 204.898 174.545C204.478 174.93 203.861 175.123 203.045 175.123ZM218.235 185.17C217.351 185.17 216.569 184.96 215.889 184.541C215.209 184.11 214.676 183.544 214.291 182.841C213.906 182.138 213.713 181.373 213.713 180.546C213.713 179.707 213.9 178.942 214.274 178.251C214.648 177.56 215.175 177.01 215.855 176.602C216.535 176.183 217.323 175.973 218.218 175.973C219.091 175.973 219.85 176.171 220.496 176.568C221.153 176.953 221.641 177.475 221.958 178.132L220.496 178.591C220.269 178.172 219.952 177.849 219.544 177.622C219.136 177.384 218.683 177.265 218.184 177.265C217.64 177.265 217.141 177.407 216.688 177.69C216.246 177.973 215.895 178.364 215.634 178.863C215.373 179.35 215.243 179.911 215.243 180.546C215.243 181.169 215.373 181.736 215.634 182.246C215.906 182.745 216.263 183.141 216.705 183.436C217.158 183.731 217.657 183.878 218.201 183.878C218.552 183.878 218.887 183.816 219.204 183.691C219.533 183.566 219.816 183.402 220.054 183.198C220.303 182.983 220.473 182.75 220.564 182.501L222.026 182.943C221.765 183.589 221.289 184.122 220.598 184.541C219.918 184.96 219.13 185.17 218.235 185.17ZM224.044 185V176.143H225.54V182.994L230.504 176.126H231.864V185H230.368V178.285L225.472 185H224.044ZM238.521 185.17C237.637 185.17 236.855 184.96 236.175 184.541C235.495 184.11 234.963 183.544 234.577 182.841C234.192 182.138 233.999 181.373 233.999 180.546C233.999 179.707 234.186 178.942 234.56 178.251C234.934 177.56 235.461 177.01 236.141 176.602C236.821 176.183 237.609 175.973 238.504 175.973C239.377 175.973 240.136 176.171 240.782 176.568C241.44 176.953 241.927 177.475 242.244 178.132L240.782 178.591C240.556 178.172 240.238 177.849 239.83 177.622C239.422 177.384 238.969 177.265 238.47 177.265C237.926 177.265 237.428 177.407 236.974 177.69C236.532 177.973 236.181 178.364 235.92 178.863C235.66 179.35 235.529 179.911 235.529 180.546C235.529 181.169 235.66 181.736 235.92 182.246C236.192 182.745 236.549 183.141 236.991 183.436C237.445 183.731 237.943 183.878 238.487 183.878C238.839 183.878 239.173 183.816 239.49 183.691C239.819 183.566 240.102 183.402 240.34 183.198C240.59 182.983 240.76 182.75 240.85 182.501L242.312 182.943C242.052 183.589 241.576 184.122 240.884 184.541C240.204 184.96 239.417 185.17 238.521 185.17ZM246.506 185V177.452H243.446V176.126H251.062V177.452H248.002V185H246.506ZM256.832 185.17C255.948 185.17 255.166 184.96 254.486 184.541C253.806 184.122 253.274 183.561 252.888 182.858C252.503 182.155 252.31 181.39 252.31 180.563C252.31 179.724 252.503 178.959 252.888 178.268C253.274 177.577 253.806 177.021 254.486 176.602C255.178 176.183 255.965 175.973 256.849 175.973C257.745 175.973 258.521 176.188 259.178 176.619C259.847 177.038 260.363 177.594 260.725 178.285C261.099 178.965 261.286 179.702 261.286 180.495C261.286 180.744 261.275 180.937 261.252 181.073H253.891C253.937 181.651 254.095 182.167 254.367 182.62C254.651 183.062 255.013 183.413 255.455 183.674C255.897 183.923 256.373 184.048 256.883 184.048C257.427 184.048 257.937 183.912 258.413 183.64C258.901 183.368 259.235 183.011 259.416 182.569L260.708 182.926C260.425 183.583 259.932 184.122 259.229 184.541C258.527 184.96 257.728 185.17 256.832 185.17ZM253.84 180.036H259.892C259.847 179.458 259.683 178.948 259.399 178.506C259.116 178.064 258.753 177.718 258.311 177.469C257.869 177.22 257.382 177.095 256.849 177.095C256.328 177.095 255.846 177.22 255.404 177.469C254.962 177.718 254.6 178.064 254.316 178.506C254.044 178.948 253.886 179.458 253.84 180.036ZM263.272 185V176.126H264.819L268.117 181.94L271.432 176.126H272.945V185H271.517V178.285L268.593 183.419H267.641L264.7 178.285V185H263.272ZM279.626 185.17C278.742 185.17 277.96 184.96 277.28 184.541C276.6 184.122 276.067 183.561 275.682 182.858C275.296 182.155 275.104 181.39 275.104 180.563C275.104 179.724 275.296 178.959 275.682 178.268C276.067 177.577 276.6 177.021 277.28 176.602C277.971 176.183 278.759 175.973 279.643 175.973C280.538 175.973 281.314 176.188 281.972 176.619C282.64 177.038 283.156 177.594 283.519 178.285C283.893 178.965 284.08 179.702 284.08 180.495C284.08 180.744 284.068 180.937 284.046 181.073H276.685C276.73 181.651 276.889 182.167 277.161 182.62C277.444 183.062 277.807 183.413 278.249 183.674C278.691 183.923 279.167 184.048 279.677 184.048C280.221 184.048 280.731 183.912 281.207 183.64C281.694 183.368 282.028 183.011 282.21 182.569L283.502 182.926C283.218 183.583 282.725 184.122 282.023 184.541C281.32 184.96 280.521 185.17 279.626 185.17ZM276.634 180.036H282.686C282.64 179.458 282.476 178.948 282.193 178.506C281.909 178.064 281.547 177.718 281.105 177.469C280.663 177.22 280.175 177.095 279.643 177.095C279.121 177.095 278.64 177.22 278.198 177.469C277.756 177.718 277.393 178.064 277.11 178.506C276.838 178.948 276.679 179.458 276.634 180.036ZM290.705 185V176.126H295.295C295.828 176.126 296.27 176.234 296.621 176.449C296.973 176.653 297.233 176.919 297.403 177.248C297.585 177.577 297.675 177.928 297.675 178.302C297.675 178.778 297.562 179.209 297.335 179.594C297.109 179.968 296.78 180.251 296.349 180.444C296.859 180.591 297.273 180.858 297.59 181.243C297.908 181.617 298.066 182.082 298.066 182.637C298.066 183.385 297.8 183.969 297.267 184.388C296.746 184.796 296.06 185 295.21 185H290.705ZM292.133 180.036H294.904C295.301 180.036 295.624 179.889 295.873 179.594C296.134 179.288 296.264 178.942 296.264 178.557C296.264 178.183 296.14 177.86 295.89 177.588C295.652 177.316 295.341 177.18 294.955 177.18H292.133V180.036ZM292.133 183.946H295.176C295.584 183.946 295.924 183.799 296.196 183.504C296.48 183.209 296.621 182.869 296.621 182.484C296.621 182.087 296.485 181.747 296.213 181.464C295.953 181.169 295.624 181.022 295.227 181.022H292.133V183.946ZM14.865 196.998H16.31L17.908 201.197L19.523 196.998H20.968L18.877 202.251L20.951 207.232L25.031 196.93H26.697L21.648 209H20.322L17.925 203.305L15.511 209H14.185L9.153 196.93H10.802L14.899 207.232L16.956 202.251L14.865 196.998ZM31.091 209.17C30.207 209.17 29.425 208.96 28.745 208.541C28.0763 208.11 27.555 207.549 27.181 206.858C26.807 206.155 26.62 205.396 26.62 204.58C26.62 203.753 26.807 202.993 27.181 202.302C27.5663 201.599 28.0933 201.038 28.762 200.619C29.442 200.188 30.2183 199.973 31.091 199.973C31.975 199.973 32.7513 200.188 33.42 200.619C34.1 201.038 34.627 201.599 35.001 202.302C35.3863 202.993 35.579 203.753 35.579 204.58C35.579 205.396 35.3863 206.155 35.001 206.858C34.627 207.549 34.1056 208.11 33.437 208.541C32.7683 208.96 31.9863 209.17 31.091 209.17ZM28.15 204.597C28.15 205.209 28.2803 205.764 28.541 206.263C28.813 206.762 29.17 207.158 29.612 207.453C30.054 207.736 30.547 207.878 31.091 207.878C31.635 207.878 32.128 207.731 32.57 207.436C33.0233 207.141 33.3803 206.745 33.641 206.246C33.913 205.736 34.049 205.175 34.049 204.563C34.049 203.951 33.913 203.396 33.641 202.897C33.3803 202.398 33.0233 202.002 32.57 201.707C32.128 201.412 31.635 201.265 31.091 201.265C30.547 201.265 30.054 201.418 29.612 201.724C29.17 202.019 28.813 202.415 28.541 202.914C28.2803 203.413 28.15 203.974 28.15 204.597ZM51.1107 209H49.6147V204.036C49.6147 203.107 49.4617 202.421 49.1557 201.979C48.8611 201.537 48.4191 201.316 47.8297 201.316C47.2291 201.316 46.6851 201.537 46.1977 201.979C45.7104 202.41 45.3647 202.971 45.1607 203.662V209H43.6647V204.036C43.6647 203.095 43.5174 202.41 43.2227 201.979C42.9281 201.537 42.4861 201.316 41.8967 201.316C41.3074 201.316 40.7634 201.531 40.2647 201.962C39.7774 202.381 39.4317 202.942 39.2277 203.645V209H37.7317V200.126H39.0917V202.03C39.4544 201.373 39.9247 200.868 40.5027 200.517C41.0807 200.154 41.7324 199.973 42.4577 199.973C43.1944 199.973 43.7837 200.177 44.2257 200.585C44.6677 200.982 44.9397 201.497 45.0417 202.132C45.8351 200.693 46.9627 199.973 48.4247 199.973C49.1047 199.973 49.6374 200.137 50.0227 200.466C50.4194 200.783 50.6971 201.225 50.8557 201.792C51.0257 202.347 51.1107 202.982 51.1107 203.696V209ZM53.0798 206.433C53.0798 205.866 53.2385 205.379 53.5558 204.971C53.8845 204.552 54.3321 204.229 54.8988 204.002C55.4655 203.775 56.1228 203.662 56.8708 203.662C57.2675 203.662 57.6868 203.696 58.1288 203.764C58.5708 203.821 58.9618 203.911 59.3018 204.036V203.39C59.3018 202.71 59.0978 202.177 58.6898 201.792C58.2818 201.395 57.7038 201.197 56.9558 201.197C56.4685 201.197 55.9981 201.288 55.5448 201.469C55.1028 201.639 54.6325 201.888 54.1338 202.217L53.5898 201.163C54.1678 200.766 54.7458 200.472 55.3238 200.279C55.9018 200.075 56.5025 199.973 57.1258 199.973C58.2591 199.973 59.1545 200.29 59.8118 200.925C60.4691 201.548 60.7978 202.421 60.7978 203.543V207.3C60.7978 207.651 60.9565 207.833 61.2738 207.844V209C61.1265 209.023 60.9961 209.04 60.8828 209.051C60.7808 209.062 60.6958 209.068 60.6278 209.068C60.2765 209.068 60.0101 208.972 59.8288 208.779C59.6588 208.586 59.5625 208.382 59.5398 208.167L59.5058 207.606C59.1205 208.105 58.6161 208.49 57.9928 208.762C57.3695 209.034 56.7518 209.17 56.1398 209.17C55.5505 209.17 55.0235 209.051 54.5588 208.813C54.0941 208.564 53.7315 208.235 53.4708 207.827C53.2101 207.408 53.0798 206.943 53.0798 206.433ZM58.8598 207.062C58.9958 206.903 59.1035 206.745 59.1828 206.586C59.2621 206.416 59.3018 206.274 59.3018 206.161V205.056C58.5765 204.773 57.8285 204.631 57.0578 204.631C56.2985 204.631 55.6808 204.784 55.2048 205.09C54.7401 205.385 54.5078 205.793 54.5078 206.314C54.5078 206.597 54.5815 206.875 54.7288 207.147C54.8875 207.408 55.1141 207.623 55.4088 207.793C55.7148 207.963 56.0888 208.048 56.5308 208.048C56.9955 208.048 57.4375 207.957 57.8568 207.776C58.2761 207.583 58.6105 207.345 58.8598 207.062ZM62.8329 208.031L68.4259 201.214H62.9859V200.126H70.1089V201.095L64.5499 207.912H70.1259V209H62.8329V208.031ZM72.2537 198.46V196.59H73.7497V198.46H72.2537ZM72.2537 209V200.126H73.7497V209H72.2537ZM84.2127 209H82.7166V204.036C82.7166 203.095 82.5693 202.41 82.2746 201.979C81.9913 201.537 81.555 201.316 80.9656 201.316C80.5576 201.316 80.1496 201.418 79.7416 201.622C79.345 201.826 78.988 202.104 78.6706 202.455C78.3646 202.795 78.1436 203.192 78.0076 203.645V209H76.5116V200.126H77.8716V202.03C78.223 201.407 78.7273 200.908 79.3846 200.534C80.0533 200.16 80.7786 199.973 81.5606 199.973C82.252 199.973 82.7846 200.137 83.1586 200.466C83.544 200.783 83.816 201.225 83.9747 201.792C84.1333 202.347 84.2127 202.982 84.2127 203.696V209ZM90.415 209.102C89.6103 209.102 88.8963 208.892 88.273 208.473C87.661 208.042 87.1793 207.481 86.828 206.79C86.488 206.099 86.318 205.362 86.318 204.58C86.318 203.741 86.488 202.976 86.828 202.285C87.1793 201.582 87.6667 201.021 88.29 200.602C88.9133 200.183 89.6273 199.973 90.432 199.973C91.1687 199.973 91.809 200.154 92.353 200.517C92.9083 200.88 93.373 201.339 93.747 201.894V200.126H95.073V208.898C95.073 209.737 94.869 210.445 94.461 211.023C94.0643 211.601 93.5203 212.037 92.829 212.332C92.149 212.638 91.3897 212.791 90.551 212.791C89.5537 212.791 88.7377 212.615 88.103 212.264C87.4683 211.913 86.9413 211.437 86.522 210.836L87.389 210.071C87.7403 210.592 88.1937 210.983 88.749 211.244C89.3157 211.505 89.9163 211.635 90.551 211.635C91.095 211.635 91.5937 211.533 92.047 211.329C92.5117 211.136 92.88 210.836 93.152 210.428C93.4353 210.02 93.577 209.51 93.577 208.898V207.334C93.2483 207.878 92.795 208.309 92.217 208.626C91.6503 208.943 91.0497 209.102 90.415 209.102ZM90.874 207.878C91.2933 207.878 91.6957 207.782 92.081 207.589C92.4663 207.396 92.7893 207.147 93.05 206.841C93.322 206.535 93.4977 206.218 93.577 205.889V203.339C93.339 202.738 92.9537 202.245 92.421 201.86C91.8883 201.463 91.3273 201.265 90.738 201.265C90.1373 201.265 89.616 201.429 89.174 201.758C88.7433 202.087 88.409 202.506 88.171 203.016C87.9443 203.526 87.831 204.059 87.831 204.614C87.831 205.203 87.967 205.747 88.239 206.246C88.511 206.733 88.8737 207.13 89.327 207.436C89.7917 207.731 90.3073 207.878 90.874 207.878ZM102.45 209V200.126H103.997L107.295 205.94L110.61 200.126H112.123V209H110.695V202.285L107.771 207.419H106.819L103.878 202.285V209H102.45ZM114.86 209V200.126H116.356V203.152H118.158C119.2 203.152 119.988 203.418 120.521 203.951C121.065 204.472 121.337 205.158 121.337 206.008C121.337 206.858 121.076 207.572 120.555 208.15C120.033 208.717 119.268 209 118.26 209H114.86ZM122.867 209V200.143H124.363V209H122.867ZM116.356 207.827H118.056C118.679 207.827 119.127 207.651 119.399 207.3C119.682 206.937 119.824 206.518 119.824 206.042C119.824 205.577 119.693 205.175 119.433 204.835C119.172 204.495 118.702 204.325 118.022 204.325H116.356V207.827ZM131.743 209V200.126H133.29L136.588 205.94L139.903 200.126H141.416V209H139.988V202.285L137.064 207.419H136.112L133.171 202.285V209H131.743ZM148.045 209.17C147.161 209.17 146.379 208.96 145.699 208.541C145.03 208.11 144.509 207.549 144.135 206.858C143.761 206.155 143.574 205.396 143.574 204.58C143.574 203.753 143.761 202.993 144.135 202.302C144.52 201.599 145.047 201.038 145.716 200.619C146.396 200.188 147.172 199.973 148.045 199.973C148.929 199.973 149.705 200.188 150.374 200.619C151.054 201.038 151.581 201.599 151.955 202.302C152.34 202.993 152.533 203.753 152.533 204.58C152.533 205.396 152.34 206.155 151.955 206.858C151.581 207.549 151.06 208.11 150.391 208.541C149.722 208.96 148.94 209.17 148.045 209.17ZM145.104 204.597C145.104 205.209 145.234 205.764 145.495 206.263C145.767 206.762 146.124 207.158 146.566 207.453C147.008 207.736 147.501 207.878 148.045 207.878C148.589 207.878 149.082 207.731 149.524 207.436C149.977 207.141 150.334 206.745 150.595 206.246C150.867 205.736 151.003 205.175 151.003 204.563C151.003 203.951 150.867 203.396 150.595 202.897C150.334 202.398 149.977 202.002 149.524 201.707C149.082 201.412 148.589 201.265 148.045 201.265C147.501 201.265 147.008 201.418 146.566 201.724C146.124 202.019 145.767 202.415 145.495 202.914C145.234 203.413 145.104 203.974 145.104 204.597ZM154.074 209L157.338 204.427L154.363 200.126H156.046L158.596 203.815H159.548V200.126H161.078V203.815H162.064L164.563 200.126H166.263L163.288 204.427L166.569 209H164.852L162.064 205.124H161.078V209H159.548V205.124H158.596L155.791 209H154.074ZM172.632 209.17C171.748 209.17 170.966 208.96 170.286 208.541C169.606 208.122 169.074 207.561 168.688 206.858C168.303 206.155 168.11 205.39 168.11 204.563C168.11 203.724 168.303 202.959 168.688 202.268C169.074 201.577 169.606 201.021 170.286 200.602C170.978 200.183 171.765 199.973 172.649 199.973C173.545 199.973 174.321 200.188 174.978 200.619C175.647 201.038 176.163 201.594 176.525 202.285C176.899 202.965 177.086 203.702 177.086 204.495C177.086 204.744 177.075 204.937 177.052 205.073H169.691C169.737 205.651 169.895 206.167 170.167 206.62C170.451 207.062 170.813 207.413 171.255 207.674C171.697 207.923 172.173 208.048 172.683 208.048C173.227 208.048 173.737 207.912 174.213 207.64C174.701 207.368 175.035 207.011 175.216 206.569L176.508 206.926C176.225 207.583 175.732 208.122 175.029 208.541C174.327 208.96 173.528 209.17 172.632 209.17ZM169.64 204.036H175.692C175.647 203.458 175.483 202.948 175.199 202.506C174.916 202.064 174.553 201.718 174.111 201.469C173.669 201.22 173.182 201.095 172.649 201.095C172.128 201.095 171.646 201.22 171.204 201.469C170.762 201.718 170.4 202.064 170.116 202.506C169.844 202.948 169.686 203.458 169.64 204.036ZM179.072 209V200.126H180.619L183.917 205.94L187.232 200.126H188.745V209H187.317V202.285L184.393 207.419H183.441L180.5 202.285V209H179.072ZM200.015 209.17C199.131 209.17 198.349 208.96 197.669 208.541C197 208.11 196.479 207.549 196.105 206.858C195.731 206.155 195.544 205.396 195.544 204.58C195.544 203.753 195.731 202.993 196.105 202.302C196.49 201.599 197.017 201.038 197.686 200.619C198.366 200.188 199.142 199.973 200.015 199.973C200.899 199.973 201.675 200.188 202.344 200.619C203.024 201.038 203.551 201.599 203.925 202.302C204.31 202.993 204.503 203.753 204.503 204.58C204.503 205.396 204.31 206.155 203.925 206.858C203.551 207.549 203.029 208.11 202.361 208.541C201.692 208.96 200.91 209.17 200.015 209.17ZM197.074 204.597C197.074 205.209 197.204 205.764 197.465 206.263C197.737 206.762 198.094 207.158 198.536 207.453C198.978 207.736 199.471 207.878 200.015 207.878C200.559 207.878 201.052 207.731 201.494 207.436C201.947 207.141 202.304 206.745 202.565 206.246C202.837 205.736 202.973 205.175 202.973 204.563C202.973 203.951 202.837 203.396 202.565 202.897C202.304 202.398 201.947 202.002 201.494 201.707C201.052 201.412 200.559 201.265 200.015 201.265C199.471 201.265 198.978 201.418 198.536 201.724C198.094 202.019 197.737 202.415 197.465 202.914C197.204 203.413 197.074 203.974 197.074 204.597ZM208.814 209V201.452H205.754V200.126H213.37V201.452H210.31V209H208.814ZM215.196 209V200.126H216.692V207.691H220.194V200.126H221.707V207.691H225.192V200.126H226.688V209H215.196ZM229.432 209V200.143H230.928V206.994L235.892 200.126H237.252V209H235.756V202.285L230.86 209H229.432ZM239.965 209V200.126H244.555C245.088 200.126 245.53 200.234 245.881 200.449C246.232 200.653 246.493 200.919 246.663 201.248C246.844 201.577 246.935 201.928 246.935 202.302C246.935 202.778 246.822 203.209 246.595 203.594C246.368 203.968 246.04 204.251 245.609 204.444C246.119 204.591 246.533 204.858 246.85 205.243C247.167 205.617 247.326 206.082 247.326 206.637C247.326 207.385 247.06 207.969 246.527 208.388C246.006 208.796 245.32 209 244.47 209H239.965ZM241.393 204.036H244.164C244.561 204.036 244.884 203.889 245.133 203.594C245.394 203.288 245.524 202.942 245.524 202.557C245.524 202.183 245.399 201.86 245.15 201.588C244.912 201.316 244.6 201.18 244.215 201.18H241.393V204.036ZM241.393 207.946H244.436C244.844 207.946 245.184 207.799 245.456 207.504C245.739 207.209 245.881 206.869 245.881 206.484C245.881 206.087 245.745 205.747 245.473 205.464C245.212 205.169 244.884 205.022 244.487 205.022H241.393V207.946ZM248.872 206.433C248.872 205.866 249.031 205.379 249.348 204.971C249.677 204.552 250.124 204.229 250.691 204.002C251.258 203.775 251.915 203.662 252.663 203.662C253.06 203.662 253.479 203.696 253.921 203.764C254.363 203.821 254.754 203.911 255.094 204.036V203.39C255.094 202.71 254.89 202.177 254.482 201.792C254.074 201.395 253.496 201.197 252.748 201.197C252.261 201.197 251.79 201.288 251.337 201.469C250.895 201.639 250.425 201.888 249.926 202.217L249.382 201.163C249.96 200.766 250.538 200.472 251.116 200.279C251.694 200.075 252.295 199.973 252.918 199.973C254.051 199.973 254.947 200.29 255.604 200.925C256.261 201.548 256.59 202.421 256.59 203.543V207.3C256.59 207.651 256.749 207.833 257.066 207.844V209C256.919 209.023 256.788 209.04 256.675 209.051C256.573 209.062 256.488 209.068 256.42 209.068C256.069 209.068 255.802 208.972 255.621 208.779C255.451 208.586 255.355 208.382 255.332 208.167L255.298 207.606C254.913 208.105 254.408 208.49 253.785 208.762C253.162 209.034 252.544 209.17 251.932 209.17C251.343 209.17 250.816 209.051 250.351 208.813C249.886 208.564 249.524 208.235 249.263 207.827C249.002 207.408 248.872 206.943 248.872 206.433ZM254.652 207.062C254.788 206.903 254.896 206.745 254.975 206.586C255.054 206.416 255.094 206.274 255.094 206.161V205.056C254.369 204.773 253.621 204.631 252.85 204.631C252.091 204.631 251.473 204.784 250.997 205.09C250.532 205.385 250.3 205.793 250.3 206.314C250.3 206.597 250.374 206.875 250.521 207.147C250.68 207.408 250.906 207.623 251.201 207.793C251.507 207.963 251.881 208.048 252.323 208.048C252.788 208.048 253.23 207.957 253.649 207.776C254.068 207.583 254.403 207.345 254.652 207.062ZM261.381 209V201.452H258.321V200.126H265.937V201.452H262.877V209H261.381ZM267.763 209V200.126H269.259V203.152H271.469C272.512 203.152 273.3 203.418 273.832 203.951C274.376 204.472 274.648 205.158 274.648 206.008C274.648 206.858 274.388 207.572 273.866 208.15C273.345 208.717 272.58 209 271.571 209H267.763ZM269.259 207.827H271.367C271.991 207.827 272.438 207.651 272.71 207.3C272.994 206.937 273.135 206.518 273.135 206.042C273.135 205.577 273.005 205.175 272.744 204.835C272.484 204.495 272.013 204.325 271.333 204.325H269.259V207.827ZM280.274 211.091V207.674H280.461C280.79 207.674 281.084 207.538 281.345 207.266C281.617 206.983 281.838 206.484 282.008 205.77C282.178 205.045 282.28 204.019 282.314 202.693L282.399 200.126H288.434V207.674H289.641V211.091H288.315V209H281.6V211.091H280.274ZM282.552 207.674H286.938V201.452H283.725L283.674 202.829C283.629 204.28 283.51 205.379 283.317 206.127C283.136 206.875 282.881 207.391 282.552 207.674ZM295.52 209.17C294.636 209.17 293.854 208.96 293.174 208.541C292.505 208.11 291.984 207.549 291.61 206.858C291.236 206.155 291.049 205.396 291.049 204.58C291.049 203.753 291.236 202.993 291.61 202.302C291.995 201.599 292.522 201.038 293.191 200.619C293.871 200.188 294.647 199.973 295.52 199.973C296.404 199.973 297.18 200.188 297.849 200.619C298.529 201.038 299.056 201.599 299.43 202.302C299.815 202.993 300.008 203.753 300.008 204.58C300.008 205.396 299.815 206.155 299.43 206.858C299.056 207.549 298.535 208.11 297.866 208.541C297.197 208.96 296.415 209.17 295.52 209.17ZM292.579 204.597C292.579 205.209 292.709 205.764 292.97 206.263C293.242 206.762 293.599 207.158 294.041 207.453C294.483 207.736 294.976 207.878 295.52 207.878C296.064 207.878 296.557 207.731 296.999 207.436C297.452 207.141 297.809 206.745 298.07 206.246C298.342 205.736 298.478 205.175 298.478 204.563C298.478 203.951 298.342 203.396 298.07 202.897C297.809 202.398 297.452 202.002 296.999 201.707C296.557 201.412 296.064 201.265 295.52 201.265C294.976 201.265 294.483 201.418 294.041 201.724C293.599 202.019 293.242 202.415 292.97 202.914C292.709 203.413 292.579 203.974 292.579 204.597ZM9.731 233C9.731 232.388 9.799 231.833 9.935 231.334C10.0823 230.824 10.3543 230.342 10.751 229.889C11.159 229.436 11.7427 228.994 12.502 228.563C12.9553 228.314 13.4087 228.076 13.862 227.849C14.3267 227.611 14.712 227.35 15.018 227.067C15.3353 226.772 15.494 226.427 15.494 226.03C15.494 225.633 15.3183 225.271 14.967 224.942C14.627 224.613 14.1283 224.449 13.471 224.449C13.029 224.449 12.6323 224.528 12.281 224.687C11.9297 224.834 11.6293 225.016 11.38 225.231C11.142 225.435 10.9493 225.622 10.802 225.792L9.867 224.738C9.99167 224.602 10.224 224.409 10.564 224.16C10.904 223.899 11.3403 223.661 11.873 223.446C12.4057 223.231 13.0233 223.123 13.726 223.123C14.4287 223.123 15.0293 223.248 15.528 223.497C16.038 223.735 16.429 224.064 16.701 224.483C16.973 224.891 17.109 225.35 17.109 225.86C17.109 226.302 17.0127 226.687 16.82 227.016C16.6387 227.345 16.4007 227.634 16.106 227.883C15.8227 228.132 15.5223 228.348 15.205 228.529C14.899 228.699 14.6213 228.846 14.372 228.971C13.692 229.311 13.1423 229.611 12.723 229.872C12.3037 230.121 11.9863 230.382 11.771 230.654C11.5557 230.926 11.397 231.255 11.295 231.64H17.296V233H9.731ZM27.9577 228.019C27.9577 229.016 27.7707 229.906 27.3967 230.688C27.0227 231.459 26.5127 232.065 25.8667 232.507C25.2207 232.949 24.484 233.17 23.6567 233.17C22.8293 233.17 22.0927 232.949 21.4467 232.507C20.8007 232.065 20.2907 231.459 19.9167 230.688C19.5427 229.906 19.3557 229.016 19.3557 228.019C19.3557 227.022 19.5427 226.138 19.9167 225.367C20.2907 224.585 20.8007 223.973 21.4467 223.531C22.0927 223.078 22.8293 222.851 23.6567 222.851C24.484 222.851 25.2207 223.078 25.8667 223.531C26.5127 223.973 27.0227 224.585 27.3967 225.367C27.7707 226.138 27.9577 227.022 27.9577 228.019ZM26.4447 228.019C26.4447 227.271 26.3257 226.614 26.0877 226.047C25.8497 225.48 25.521 225.038 25.1017 224.721C24.6823 224.404 24.2007 224.245 23.6567 224.245C23.1013 224.245 22.614 224.404 22.1947 224.721C21.7753 225.038 21.4467 225.48 21.2087 226.047C20.9707 226.614 20.8517 227.271 20.8517 228.019C20.8517 228.767 20.9707 229.424 21.2087 229.991C21.4467 230.546 21.7753 230.983 22.1947 231.3C22.614 231.617 23.1013 231.776 23.6567 231.776C24.2007 231.776 24.6823 231.617 25.1017 231.3C25.521 230.983 25.8497 230.546 26.0877 229.991C26.3257 229.424 26.4447 228.767 26.4447 228.019ZM30.308 229.039V227.679H35.323V229.039H30.308ZM39.5003 233V225.452H36.4403V224.126H44.0563V225.452H40.9963V233H39.5003ZM45.882 233V224.143H47.378V230.994L52.342 224.126H53.702V233H52.206V226.285L47.31 233H45.882ZM64.9992 233.17C64.1152 233.17 63.3332 232.96 62.6532 232.541C61.9732 232.122 61.4405 231.561 61.0552 230.858C60.6699 230.155 60.4772 229.39 60.4772 228.563C60.4772 227.724 60.6699 226.959 61.0552 226.268C61.4405 225.577 61.9732 225.021 62.6532 224.602C63.3445 224.183 64.1322 223.973 65.0162 223.973C65.9115 223.973 66.6879 224.188 67.3452 224.619C68.0139 225.038 68.5295 225.594 68.8922 226.285C69.2662 226.965 69.4532 227.702 69.4532 228.495C69.4532 228.744 69.4419 228.937 69.4192 229.073H62.0582C62.1035 229.651 62.2622 230.167 62.5342 230.62C62.8175 231.062 63.1802 231.413 63.6222 231.674C64.0642 231.923 64.5402 232.048 65.0502 232.048C65.5942 232.048 66.1042 231.912 66.5802 231.64C67.0675 231.368 67.4019 231.011 67.5832 230.569L68.8752 230.926C68.5919 231.583 68.0989 232.122 67.3962 232.541C66.6935 232.96 65.8945 233.17 64.9992 233.17ZM62.0072 228.036H68.0592C68.0139 227.458 67.8495 226.948 67.5662 226.506C67.2829 226.064 66.9202 225.718 66.4782 225.469C66.0362 225.22 65.5489 225.095 65.0162 225.095C64.4949 225.095 64.0132 225.22 63.5712 225.469C63.1292 225.718 62.7665 226.064 62.4832 226.506C62.2112 226.948 62.0525 227.458 62.0072 228.036ZM70.4701 235.091V231.674H70.6571C70.9858 231.674 71.2805 231.538 71.5411 231.266C71.8131 230.983 72.0341 230.484 72.2041 229.77C72.3741 229.045 72.4761 228.019 72.5101 226.693L72.5951 224.126H78.6301V231.674H79.8371V235.091H78.5111V233H71.7961V235.091H70.4701ZM72.7481 231.674H77.1341V225.452H73.9211L73.8701 226.829C73.8248 228.28 73.7058 229.379 73.5131 230.127C73.3318 230.875 73.0768 231.391 72.7481 231.674ZM81.8231 233V224.143H83.3191V230.994L88.2831 224.126H89.6431V233H88.1471V226.285L83.2511 233H81.8231ZM92.3564 233V224.126H93.8524V227.798H98.4764V224.126H99.9724V233H98.4764V229.124H93.8524V233H92.3564ZM102.707 233V224.143H104.203V230.994L109.167 224.126H110.527V233H109.031V226.285L104.135 233H102.707ZM120.245 235.091V233H113.241V224.126H114.737V231.691H118.851V224.126H120.347V231.691H121.571V235.091H120.245ZM128.198 233V224.126H135.559V233H134.063V225.452H129.694V233H128.198ZM143.094 233.17C142.368 233.17 141.722 232.989 141.156 232.626C140.589 232.263 140.141 231.804 139.813 231.249V236.621H138.317V224.126H139.643V225.792C139.994 225.248 140.453 224.812 141.02 224.483C141.586 224.143 142.204 223.973 142.873 223.973C143.485 223.973 144.046 224.098 144.556 224.347C145.066 224.596 145.508 224.936 145.882 225.367C146.256 225.798 146.545 226.291 146.749 226.846C146.964 227.39 147.072 227.962 147.072 228.563C147.072 229.402 146.902 230.172 146.562 230.875C146.233 231.578 145.768 232.139 145.168 232.558C144.567 232.966 143.876 233.17 143.094 233.17ZM142.635 231.878C143.224 231.878 143.734 231.719 144.165 231.402C144.595 231.085 144.93 230.671 145.168 230.161C145.417 229.651 145.542 229.118 145.542 228.563C145.542 227.962 145.406 227.413 145.134 226.914C144.873 226.415 144.51 226.019 144.046 225.724C143.592 225.418 143.077 225.265 142.499 225.265C142.147 225.265 141.773 225.356 141.377 225.537C140.991 225.718 140.651 225.962 140.357 226.268C140.073 226.563 139.892 226.891 139.813 227.254V229.787C140.062 230.376 140.442 230.875 140.952 231.283C141.473 231.68 142.034 231.878 142.635 231.878ZM153.124 233.17C152.24 233.17 151.458 232.96 150.778 232.541C150.11 232.11 149.588 231.549 149.214 230.858C148.84 230.155 148.653 229.396 148.653 228.58C148.653 227.753 148.84 226.993 149.214 226.302C149.6 225.599 150.127 225.038 150.795 224.619C151.475 224.188 152.252 223.973 153.124 223.973C154.008 223.973 154.785 224.188 155.453 224.619C156.133 225.038 156.66 225.599 157.034 226.302C157.42 226.993 157.612 227.753 157.612 228.58C157.612 229.396 157.42 230.155 157.034 230.858C156.66 231.549 156.139 232.11 155.47 232.541C154.802 232.96 154.02 233.17 153.124 233.17ZM150.183 228.597C150.183 229.209 150.314 229.764 150.574 230.263C150.846 230.762 151.203 231.158 151.645 231.453C152.087 231.736 152.58 231.878 153.124 231.878C153.668 231.878 154.161 231.731 154.603 231.436C155.057 231.141 155.414 230.745 155.674 230.246C155.946 229.736 156.082 229.175 156.082 228.563C156.082 227.951 155.946 227.396 155.674 226.897C155.414 226.398 155.057 226.002 154.603 225.707C154.161 225.412 153.668 225.265 153.124 225.265C152.58 225.265 152.087 225.418 151.645 225.724C151.203 226.019 150.846 226.415 150.574 226.914C150.314 227.413 150.183 227.974 150.183 228.597ZM158.779 235.091V231.674H158.966C159.295 231.674 159.589 231.538 159.85 231.266C160.122 230.983 160.343 230.484 160.513 229.77C160.683 229.045 160.785 228.019 160.819 226.693L160.904 224.126H166.939V231.674H168.146V235.091H166.82V233H160.105V235.091H158.779ZM161.057 231.674H165.443V225.452H162.23L162.179 226.829C162.134 228.28 162.015 229.379 161.822 230.127C161.641 230.875 161.386 231.391 161.057 231.674ZM171.254 236.723C170.88 236.723 170.483 236.61 170.064 236.383L170.574 235.363C170.767 235.476 170.959 235.533 171.152 235.533C171.707 235.533 172.195 235.017 172.614 233.986L173.039 232.915L169.146 224.126H170.727L173.719 231.487L176.422 224.126H177.901L173.753 234.445C173.447 235.204 173.079 235.771 172.648 236.145C172.217 236.53 171.753 236.723 171.254 236.723ZM179.736 233V224.126H181.232V227.781H182.218L185.006 224.126H186.706L183.391 228.427L187.097 233H185.363L182.218 229.158H181.232V233H179.736ZM195.895 235.091V233H188.891V224.126H190.387V231.691H194.501V224.126H195.997V231.691H197.221V235.091H195.895ZM199.209 233V224.143H200.705V230.994L205.669 224.126H207.029V233H205.533V226.285L200.637 233H199.209ZM209.742 233V224.143H211.238V230.994L216.202 224.126H217.562V233H216.066V226.285L211.17 233H209.742ZM224.915 233V224.126H229.505C230.038 224.126 230.48 224.234 230.831 224.449C231.183 224.653 231.443 224.919 231.613 225.248C231.795 225.577 231.885 225.928 231.885 226.302C231.885 226.778 231.772 227.209 231.545 227.594C231.319 227.968 230.99 228.251 230.559 228.444C231.069 228.591 231.483 228.858 231.8 229.243C232.118 229.617 232.276 230.082 232.276 230.637C232.276 231.385 232.01 231.969 231.477 232.388C230.956 232.796 230.27 233 229.42 233H224.915ZM226.343 228.036H229.114C229.511 228.036 229.834 227.889 230.083 227.594C230.344 227.288 230.474 226.942 230.474 226.557C230.474 226.183 230.35 225.86 230.1 225.588C229.862 225.316 229.551 225.18 229.165 225.18H226.343V228.036ZM226.343 231.946H229.386C229.794 231.946 230.134 231.799 230.406 231.504C230.69 231.209 230.831 230.869 230.831 230.484C230.831 230.087 230.695 229.747 230.423 229.464C230.163 229.169 229.834 229.022 229.437 229.022H226.343V231.946ZM239.142 233V224.126H240.638V227.798H245.262V224.126H246.758V233H245.262V229.124H240.638V233H239.142ZM248.813 230.433C248.813 229.866 248.972 229.379 249.289 228.971C249.618 228.552 250.065 228.229 250.632 228.002C251.199 227.775 251.856 227.662 252.604 227.662C253.001 227.662 253.42 227.696 253.862 227.764C254.304 227.821 254.695 227.911 255.035 228.036V227.39C255.035 226.71 254.831 226.177 254.423 225.792C254.015 225.395 253.437 225.197 252.689 225.197C252.202 225.197 251.731 225.288 251.278 225.469C250.836 225.639 250.366 225.888 249.867 226.217L249.323 225.163C249.901 224.766 250.479 224.472 251.057 224.279C251.635 224.075 252.236 223.973 252.859 223.973C253.992 223.973 254.888 224.29 255.545 224.925C256.202 225.548 256.531 226.421 256.531 227.543V231.3C256.531 231.651 256.69 231.833 257.007 231.844V233C256.86 233.023 256.729 233.04 256.616 233.051C256.514 233.062 256.429 233.068 256.361 233.068C256.01 233.068 255.743 232.972 255.562 232.779C255.392 232.586 255.296 232.382 255.273 232.167L255.239 231.606C254.854 232.105 254.349 232.49 253.726 232.762C253.103 233.034 252.485 233.17 251.873 233.17C251.284 233.17 250.757 233.051 250.292 232.813C249.827 232.564 249.465 232.235 249.204 231.827C248.943 231.408 248.813 230.943 248.813 230.433ZM254.593 231.062C254.729 230.903 254.837 230.745 254.916 230.586C254.995 230.416 255.035 230.274 255.035 230.161V229.056C254.31 228.773 253.562 228.631 252.791 228.631C252.032 228.631 251.414 228.784 250.938 229.09C250.473 229.385 250.241 229.793 250.241 230.314C250.241 230.597 250.315 230.875 250.462 231.147C250.621 231.408 250.847 231.623 251.142 231.793C251.448 231.963 251.822 232.048 252.264 232.048C252.729 232.048 253.171 231.957 253.59 231.776C254.009 231.583 254.344 231.345 254.593 231.062ZM259.246 233V224.126H260.742V231.691H264.244V224.126H265.757V231.691H269.242V224.126H270.738V233H259.246ZM273.481 233V224.143H274.977V230.994L279.941 224.126H281.301V233H279.805V226.285L274.909 233H273.481ZM284.695 224.126L287.041 227.39L287.177 227.662L287.33 227.39L289.659 224.126H291.325L288.044 228.58L291.342 233H289.676L287.33 229.753L287.177 229.498L287.041 229.753L284.695 233H283.029L286.327 228.58L283.046 224.126H284.695ZM14.134 257.17C13.25 257.17 12.468 256.96 11.788 256.541C11.108 256.11 10.5753 255.544 10.19 254.841C9.80467 254.138 9.612 253.373 9.612 252.546C9.612 251.707 9.799 250.942 10.173 250.251C10.547 249.56 11.074 249.01 11.754 248.602C12.434 248.183 13.2217 247.973 14.117 247.973C14.9897 247.973 15.749 248.171 16.395 248.568C17.0523 248.953 17.5397 249.475 17.857 250.132L16.395 250.591C16.1683 250.172 15.851 249.849 15.443 249.622C15.035 249.384 14.5817 249.265 14.083 249.265C13.539 249.265 13.0403 249.407 12.587 249.69C12.145 249.973 11.7937 250.364 11.533 250.863C11.2723 251.35 11.142 251.911 11.142 252.546C11.142 253.169 11.2723 253.736 11.533 254.246C11.805 254.745 12.162 255.141 12.604 255.436C13.0573 255.731 13.556 255.878 14.1 255.878C14.4513 255.878 14.7857 255.816 15.103 255.691C15.4317 255.566 15.715 255.402 15.953 255.198C16.2023 254.983 16.3723 254.75 16.463 254.501L17.925 254.943C17.6643 255.589 17.1883 256.122 16.497 256.541C15.817 256.96 15.0293 257.17 14.134 257.17ZM23.7531 257.17C22.8691 257.17 22.0871 256.96 21.4071 256.541C20.7384 256.11 20.2171 255.549 19.8431 254.858C19.4691 254.155 19.2821 253.396 19.2821 252.58C19.2821 251.753 19.4691 250.993 19.8431 250.302C20.2284 249.599 20.7554 249.038 21.4241 248.619C22.1041 248.188 22.8804 247.973 23.7531 247.973C24.6371 247.973 25.4134 248.188 26.0821 248.619C26.7621 249.038 27.2891 249.599 27.6631 250.302C28.0484 250.993 28.2411 251.753 28.2411 252.58C28.2411 253.396 28.0484 254.155 27.6631 254.858C27.2891 255.549 26.7677 256.11 26.0991 256.541C25.4304 256.96 24.6484 257.17 23.7531 257.17ZM20.8121 252.597C20.8121 253.209 20.9424 253.764 21.2031 254.263C21.4751 254.762 21.8321 255.158 22.2741 255.453C22.7161 255.736 23.2091 255.878 23.7531 255.878C24.2971 255.878 24.7901 255.731 25.2321 255.436C25.6854 255.141 26.0424 254.745 26.3031 254.246C26.5751 253.736 26.7111 253.175 26.7111 252.563C26.7111 251.951 26.5751 251.396 26.3031 250.897C26.0424 250.398 25.6854 250.002 25.2321 249.707C24.7901 249.412 24.2971 249.265 23.7531 249.265C23.2091 249.265 22.7161 249.418 22.2741 249.724C21.8321 250.019 21.4751 250.415 21.2031 250.914C20.9424 251.413 20.8121 251.974 20.8121 252.597ZM34.5758 257.17C33.1138 257.17 32.0088 256.728 31.2608 255.844C30.5128 254.96 30.1388 253.713 30.1388 252.104C30.1388 251.005 30.2295 250.081 30.4108 249.333C30.5922 248.574 30.8642 247.95 31.2268 247.463C31.5895 246.964 32.0372 246.562 32.5698 246.256C33.1025 245.939 33.7145 245.678 34.4058 245.474L38.1628 244.335L38.2478 245.627L34.5928 246.732C33.9695 246.936 33.4482 247.197 33.0288 247.514C32.6095 247.831 32.2808 248.239 32.0428 248.738C31.8048 249.237 31.6462 249.877 31.5668 250.659C31.8615 250.058 32.3035 249.594 32.8928 249.265C33.4822 248.925 34.1678 248.755 34.9498 248.755C35.7885 248.755 36.5082 248.931 37.1088 249.282C37.7208 249.622 38.1855 250.104 38.5028 250.727C38.8315 251.339 38.9958 252.047 38.9958 252.852C38.9958 253.713 38.8258 254.467 38.4858 255.113C38.1458 255.759 37.6472 256.263 36.9898 256.626C36.3325 256.989 35.5278 257.17 34.5758 257.17ZM34.5758 255.878C35.4938 255.878 36.2022 255.612 36.7008 255.079C37.2108 254.535 37.4658 253.815 37.4658 252.92C37.4658 252.047 37.2165 251.339 36.7178 250.795C36.2192 250.251 35.5052 249.979 34.5758 249.979C33.7485 249.979 33.0572 250.234 32.5018 250.744C31.9578 251.254 31.6858 251.979 31.6858 252.92C31.6858 253.781 31.9352 254.49 32.4338 255.045C32.9325 255.6 33.6465 255.878 34.5758 255.878ZM45.0866 257.17C44.2026 257.17 43.4206 256.96 42.7406 256.541C42.0606 256.11 41.528 255.544 41.1426 254.841C40.7573 254.138 40.5646 253.373 40.5646 252.546C40.5646 251.707 40.7516 250.942 41.1256 250.251C41.4996 249.56 42.0266 249.01 42.7066 248.602C43.3866 248.183 44.1743 247.973 45.0696 247.973C45.9423 247.973 46.7016 248.171 47.3476 248.568C48.005 248.953 48.4923 249.475 48.8096 250.132L47.3476 250.591C47.121 250.172 46.8036 249.849 46.3956 249.622C45.9876 249.384 45.5343 249.265 45.0356 249.265C44.4916 249.265 43.993 249.407 43.5396 249.69C43.0976 249.973 42.7463 250.364 42.4856 250.863C42.225 251.35 42.0946 251.911 42.0946 252.546C42.0946 253.169 42.225 253.736 42.4856 254.246C42.7576 254.745 43.1146 255.141 43.5566 255.436C44.01 255.731 44.5086 255.878 45.0526 255.878C45.404 255.878 45.7383 255.816 46.0556 255.691C46.3843 255.566 46.6676 255.402 46.9056 255.198C47.155 254.983 47.325 254.75 47.4156 254.501L48.8776 254.943C48.617 255.589 48.141 256.122 47.4496 256.541C46.7696 256.96 45.982 257.17 45.0866 257.17ZM53.0717 257V249.452H50.0117V248.126H57.6277V249.452H54.5677V257H53.0717ZM59.4535 257V248.126H64.0435C64.5761 248.126 65.0181 248.234 65.3695 248.449C65.7208 248.653 65.9815 248.919 66.1515 249.248C66.3328 249.577 66.4235 249.928 66.4235 250.302C66.4235 250.778 66.3101 251.209 66.0835 251.594C65.8568 251.968 65.5281 252.251 65.0975 252.444C65.6075 252.591 66.0211 252.858 66.3385 253.243C66.6558 253.617 66.8145 254.082 66.8145 254.637C66.8145 255.385 66.5481 255.969 66.0155 256.388C65.4941 256.796 64.8085 257 63.9585 257H59.4535ZM60.8815 252.036H63.6525C64.0491 252.036 64.3721 251.889 64.6215 251.594C64.8821 251.288 65.0125 250.942 65.0125 250.557C65.0125 250.183 64.8878 249.86 64.6385 249.588C64.4005 249.316 64.0888 249.18 63.7035 249.18H60.8815V252.036ZM60.8815 255.946H63.9245C64.3325 255.946 64.6725 255.799 64.9445 255.504C65.2278 255.209 65.3695 254.869 65.3695 254.484C65.3695 254.087 65.2335 253.747 64.9615 253.464C64.7008 253.169 64.3721 253.022 63.9755 253.022H60.8815V255.946ZM72.9845 257.17C72.1005 257.17 71.3185 256.96 70.6385 256.541C69.9585 256.122 69.4259 255.561 69.0405 254.858C68.6552 254.155 68.4625 253.39 68.4625 252.563C68.4625 251.724 68.6552 250.959 69.0405 250.268C69.4259 249.577 69.9585 249.021 70.6385 248.602C71.3299 248.183 72.1175 247.973 73.0015 247.973C73.8969 247.973 74.6732 248.188 75.3305 248.619C75.9992 249.038 76.5149 249.594 76.8775 250.285C77.2515 250.965 77.4385 251.702 77.4385 252.495C77.4385 252.744 77.4272 252.937 77.4045 253.073H70.0435C70.0889 253.651 70.2475 254.167 70.5195 254.62C70.8029 255.062 71.1655 255.413 71.6075 255.674C72.0495 255.923 72.5255 256.048 73.0355 256.048C73.5795 256.048 74.0895 255.912 74.5655 255.64C75.0529 255.368 75.3872 255.011 75.5685 254.569L76.8605 254.926C76.5772 255.583 76.0842 256.122 75.3815 256.541C74.6789 256.96 73.8799 257.17 72.9845 257.17ZM69.9925 252.036H76.0445C75.9992 251.458 75.8349 250.948 75.5515 250.506C75.2682 250.064 74.9055 249.718 74.4635 249.469C74.0215 249.22 73.5342 249.095 73.0015 249.095C72.4802 249.095 71.9985 249.22 71.5565 249.469C71.1145 249.718 70.7519 250.064 70.4685 250.506C70.1965 250.948 70.0379 251.458 69.9925 252.036ZM79.4245 257V248.126H80.9205V251.798H85.5445V248.126H87.0405V257H85.5445V253.124H80.9205V257H79.4245ZM89.7752 257V248.126H91.2712V251.798H95.8952V248.126H97.3912V257H95.8952V253.124H91.2712V257H89.7752ZM100.126 257V248.126H101.622V251.152H103.424C104.467 251.152 105.254 251.418 105.787 251.951C106.331 252.472 106.603 253.158 106.603 254.008C106.603 254.858 106.342 255.572 105.821 256.15C105.3 256.717 104.535 257 103.526 257H100.126ZM108.133 257V248.143H109.629V257H108.133ZM101.622 255.827H103.322C103.945 255.827 104.393 255.651 104.665 255.3C104.948 254.937 105.09 254.518 105.09 254.042C105.09 253.577 104.96 253.175 104.699 252.835C104.438 252.495 103.968 252.325 103.288 252.325H101.622V255.827ZM113.049 248.126L115.395 251.39L115.531 251.662L115.684 251.39L118.013 248.126H119.679L116.398 252.58L119.696 257H118.03L115.684 253.753L115.531 253.498L115.395 253.753L113.049 257H111.383L114.681 252.58L111.4 248.126H113.049ZM133.069 259.091V257H126.065V248.126H127.561V255.691H131.675V248.126H133.171V255.691H134.395V259.091H133.069ZM140.326 257.17C139.442 257.17 138.66 256.96 137.98 256.541C137.3 256.122 136.768 255.561 136.382 254.858C135.997 254.155 135.804 253.39 135.804 252.563C135.804 251.724 135.997 250.959 136.382 250.268C136.768 249.577 137.3 249.021 137.98 248.602C138.672 248.183 139.459 247.973 140.343 247.973C141.239 247.973 142.015 248.188 142.672 248.619C143.341 249.038 143.857 249.594 144.219 250.285C144.593 250.965 144.78 251.702 144.78 252.495C144.78 252.744 144.769 252.937 144.746 253.073H137.385C137.431 253.651 137.589 254.167 137.861 254.62C138.145 255.062 138.507 255.413 138.949 255.674C139.391 255.923 139.867 256.048 140.377 256.048C140.921 256.048 141.431 255.912 141.907 255.64C142.395 255.368 142.729 255.011 142.91 254.569L144.202 254.926C143.919 255.583 143.426 256.122 142.723 256.541C142.021 256.96 141.222 257.17 140.326 257.17ZM137.334 252.036H143.386C143.341 251.458 143.177 250.948 142.893 250.506C142.61 250.064 142.247 249.718 141.805 249.469C141.363 249.22 140.876 249.095 140.343 249.095C139.822 249.095 139.34 249.22 138.898 249.469C138.456 249.718 138.094 250.064 137.81 250.506C137.538 250.948 137.38 251.458 137.334 252.036ZM147.446 248.126L149.792 251.39L149.928 251.662L150.081 251.39L152.41 248.126H154.076L150.795 252.58L154.093 257H152.427L150.081 253.753L149.928 253.498L149.792 253.753L147.446 257H145.78L149.078 252.58L145.797 248.126H147.446ZM155.059 254.433C155.059 253.866 155.218 253.379 155.535 252.971C155.864 252.552 156.312 252.229 156.878 252.002C157.445 251.775 158.102 251.662 158.85 251.662C159.247 251.662 159.666 251.696 160.108 251.764C160.55 251.821 160.941 251.911 161.281 252.036V251.39C161.281 250.71 161.077 250.177 160.669 249.792C160.261 249.395 159.683 249.197 158.935 249.197C158.448 249.197 157.978 249.288 157.524 249.469C157.082 249.639 156.612 249.888 156.113 250.217L155.569 249.163C156.147 248.766 156.725 248.472 157.303 248.279C157.881 248.075 158.482 247.973 159.105 247.973C160.239 247.973 161.134 248.29 161.791 248.925C162.449 249.548 162.777 250.421 162.777 251.543V255.3C162.777 255.651 162.936 255.833 163.253 255.844V257C163.106 257.023 162.976 257.04 162.862 257.051C162.76 257.062 162.675 257.068 162.607 257.068C162.256 257.068 161.99 256.972 161.808 256.779C161.638 256.586 161.542 256.382 161.519 256.167L161.485 255.606C161.1 256.105 160.596 256.49 159.972 256.762C159.349 257.034 158.731 257.17 158.119 257.17C157.53 257.17 157.003 257.051 156.538 256.813C156.074 256.564 155.711 256.235 155.45 255.827C155.19 255.408 155.059 254.943 155.059 254.433ZM160.839 255.062C160.975 254.903 161.083 254.745 161.162 254.586C161.242 254.416 161.281 254.274 161.281 254.161V253.056C160.556 252.773 159.808 252.631 159.037 252.631C158.278 252.631 157.66 252.784 157.184 253.09C156.72 253.385 156.487 253.793 156.487 254.314C156.487 254.597 156.561 254.875 156.708 255.147C156.867 255.408 157.094 255.623 157.388 255.793C157.694 255.963 158.068 256.048 158.51 256.048C158.975 256.048 159.417 255.957 159.836 255.776C160.256 255.583 160.59 255.345 160.839 255.062ZM166.172 248.126L168.518 251.39L168.654 251.662L168.807 251.39L171.136 248.126H172.802L169.521 252.58L172.819 257H171.153L168.807 253.753L168.654 253.498L168.518 253.753L166.172 257H164.506L167.804 252.58L164.523 248.126H166.172Z" fill="black"/>
</svg>
