<?xml version="1.0" encoding="UTF-8"?>
<svg xmlns="http://www.w3.org/2000/svg" xmlns:xlink="http://www.w3.org/1999/xlink" width="61px" height="61px" viewBox="0 0 61 61" version="1.1">
<g id="surface1">
<path style=" stroke:none;fill-rule:nonzero;fill:rgb(0%,0%,0%);fill-opacity:1;" d="M 49.785156 39.375 L 45.175781 36.097656 C 45.949219 33.25 45.945312 30.246094 45.164062 27.402344 L 49.789062 24.164062 L 46.097656 17.773438 L 40.953125 20.128906 C 38.871094 18.035156 36.269531 16.535156 33.414062 15.792969 L 32.921875 10.167969 L 25.535156 10.167969 L 25.046875 15.792969 C 22.191406 16.535156 19.585938 18.035156 17.507812 20.128906 L 12.363281 17.777344 L 8.671875 24.167969 L 13.296875 27.402344 C 12.515625 30.25 12.511719 33.25 13.28125 36.097656 L 8.671875 39.375 L 12.363281 45.734375 L 17.507812 43.378906 C 19.589844 45.472656 22.191406 46.96875 25.046875 47.714844 L 25.535156 53.339844 L 32.921875 53.339844 L 33.414062 47.714844 C 36.269531 46.96875 38.871094 45.472656 40.949219 43.378906 L 46.097656 45.734375 L 49.789062 39.378906 Z M 34.324219 7.585938 C 34.652344 7.585938 34.96875 7.710938 35.203125 7.9375 C 35.441406 8.164062 35.582031 8.472656 35.597656 8.800781 L 36.046875 13.972656 C 37.925781 14.6875 39.679688 15.699219 41.242188 16.964844 L 45.941406 14.773438 C 46.234375 14.621094 46.570312 14.589844 46.882812 14.683594 C 47.195312 14.777344 47.460938 14.984375 47.625 15.269531 L 52.722656 24.085938 C 52.886719 24.371094 52.933594 24.703125 52.859375 25.023438 C 52.78125 25.339844 52.585938 25.617188 52.308594 25.792969 L 48.054688 28.773438 C 48.378906 30.800781 48.371094 32.820312 48.058594 34.765625 L 52.308594 37.742188 C 52.585938 37.917969 52.78125 38.195312 52.859375 38.511719 C 52.933594 38.832031 52.886719 39.167969 52.722656 39.449219 L 47.625 48.234375 C 47.460938 48.519531 47.195312 48.726562 46.882812 48.820312 C 46.570312 48.914062 46.234375 48.882812 45.941406 48.730469 L 41.242188 46.539062 C 39.710938 47.785156 37.96875 48.800781 36.046875 49.535156 L 35.597656 54.707031 C 35.582031 55.035156 35.441406 55.339844 35.203125 55.566406 C 34.964844 55.792969 34.652344 55.917969 34.324219 55.917969 L 24.132812 55.917969 C 23.804688 55.917969 23.492188 55.792969 23.253906 55.566406 C 23.019531 55.339844 22.878906 55.035156 22.863281 54.707031 L 22.410156 49.535156 C 20.53125 48.816406 18.777344 47.804688 17.21875 46.539062 L 12.515625 48.730469 C 12.226562 48.882812 11.886719 48.914062 11.574219 48.824219 C 11.261719 48.730469 10.992188 48.523438 10.832031 48.238281 L 5.738281 39.445312 C 5.574219 39.164062 5.523438 38.828125 5.601562 38.511719 C 5.675781 38.195312 5.875 37.917969 6.148438 37.742188 L 10.402344 34.765625 C 10.082031 32.777344 10.082031 30.753906 10.402344 28.769531 L 6.152344 25.792969 C 5.875 25.617188 5.679688 25.339844 5.605469 25.023438 C 5.527344 24.707031 5.574219 24.371094 5.738281 24.089844 L 10.828125 15.269531 C 10.992188 14.984375 11.257812 14.773438 11.570312 14.683594 C 11.882812 14.589844 12.222656 14.621094 12.511719 14.773438 L 17.214844 16.964844 C 18.777344 15.699219 20.527344 14.6875 22.40625 13.972656 L 22.859375 8.800781 C 22.875 8.472656 23.015625 8.164062 23.253906 7.9375 C 23.488281 7.710938 23.804688 7.585938 24.128906 7.585938 Z M 29.230469 22.875 C 31.589844 22.875 33.851562 23.8125 35.519531 25.480469 C 37.1875 27.148438 38.125 29.410156 38.125 31.769531 C 38.125 34.128906 37.1875 36.394531 35.519531 38.0625 C 33.851562 39.730469 31.589844 40.667969 29.230469 40.667969 C 26.871094 40.667969 24.605469 39.730469 22.9375 38.0625 C 21.269531 36.394531 20.332031 34.128906 20.332031 31.769531 C 20.332031 29.410156 21.269531 27.148438 22.9375 25.480469 C 24.605469 23.8125 26.871094 22.875 29.230469 22.875 Z M 29.230469 25.417969 C 27.542969 25.417969 25.929688 26.085938 24.734375 27.277344 C 23.542969 28.46875 22.875 30.085938 22.875 31.769531 C 22.875 33.457031 23.542969 35.074219 24.734375 36.265625 C 25.929688 37.457031 27.542969 38.125 29.230469 38.125 C 30.914062 38.125 32.53125 37.457031 33.722656 36.265625 C 34.914062 35.074219 35.582031 33.457031 35.582031 31.769531 C 35.582031 30.085938 34.914062 28.46875 33.722656 27.277344 C 32.53125 26.085938 30.914062 25.417969 29.230469 25.417969 Z M 29.230469 25.417969 "/>
</g>
</svg>
